<?xml version="1.0" encoding="UTF-8" standalone="no"?>
<svg
   version="1.0"
   width="249.84581pt"
   height="169.89255pt"
   viewBox="0 0 249.84581 169.89255"
   preserveAspectRatio="xMidYMid meet"
   id="svg10"
   sodipodi:docname="eye_of_horus.svg"
   inkscape:version="1.1 (c68e22c387, 2021-05-23)"
   xmlns:inkscape="http://www.inkscape.org/namespaces/inkscape"
   xmlns:sodipodi="http://sodipodi.sourceforge.net/DTD/sodipodi-0.dtd"
   xmlns="http://www.w3.org/2000/svg"
   xmlns:svg="http://www.w3.org/2000/svg">
  <defs
     id="defs14" />
  <sodipodi:namedview
     id="namedview12"
     pagecolor="#ffffff"
     bordercolor="#666666"
     borderopacity="1.0"
     inkscape:pageshadow="2"
     inkscape:pageopacity="0.0"
     inkscape:pagecheckerboard="0"
     inkscape:document-units="pt"
     showgrid="false"
     inkscape:zoom="1.8702974"
     inkscape:cx="203.44358"
     inkscape:cy="135.53994"
     inkscape:window-width="2560"
     inkscape:window-height="1009"
     inkscape:window-x="-8"
     inkscape:window-y="-8"
     inkscape:window-maximized="1"
     inkscape:current-layer="svg10" />
  <metadata
     id="metadata2">
Created by potrace 1.10, written by Peter Selinger 2001-2011
</metadata>
  <g
     transform="matrix(0.05,0,0,-0.05,-21.067797,196.95134)"
     fill="#000000"
     stroke="none"
     id="g854">
    <path
       d="M 2675,3909 C 2385,3862 2095,3783 1498,3589 990,3423 844,3393 635,3409 c -179,14 -205,4 -139,-55 143,-130 477,-89 1524,186 821,216 1242,223 1863,30 869,-270 1590,-376 1532,-225 -12,31 -100,55 -202,55 -110,0 -448,92 -988,269 -799,263 -1116,312 -1550,240 z"
       id="path850" />
    <path
       d="M 2740,3459 C 2450,3424 2005,3310 1340,3099 981,2986 825,2948 630,2929 419,2908 413,2903 425,2737 c 13,-182 35,-204 121,-121 144,140 224,133 744,-65 753,-287 861,-311 1470,-324 375,-8 490,-3 690,28 l 240,38 -510,-512 C 2656,1254 2448,1077 2195,940 1498,564 858,668 806,1166 c -34,328 308,498 582,289 34,-26 27,-28 -75,-19 -140,11 -202,-24 -235,-134 -101,-338 377,-497 524,-174 131,290 -114,602 -472,602 -630,-2 -726,-882 -120,-1108 660,-247 1410,73 2220,948 544,588 856,871 905,822 8,-9 18,-407 21,-885 4,-673 11,-868 30,-862 13,4 114,186 224,403 206,408 294,543 511,778 143,156 143,209 -1,144 -313,-141 -600,36 -600,371 0,224 341,418 880,500 169,26 200,43 186,100 -13,47 -38,53 -291,69 -235,15 -453,67 -915,220 -696,229 -1018,280 -1440,229 z m -36,-224 c -225,-240 -90,-628 253,-728 441,-128 920,234 798,602 -39,119 -48,119 391,-28 195,-65 404,-129 464,-143 151,-33 151,-33 -215,-193 -1148,-501 -1909,-507 -3122,-25 -117,47 -213,92 -213,100 0,56 1406,455 1618,459 l 69,1 z"
       id="path852" />
  </g>
</svg>
