<svg xmlns="http://www.w3.org/2000/svg" version="1.1" viewBox="-5.0 -5.0 110.0 110.0">
 <path d="m87.84 23.449h-75.68v-3.0781c-0.003906-1.1758 0.73438-2.2266 1.8398-2.6211l35-13.75c0.64062-0.25391 1.3594-0.25391 2 0l35 13.75c1.0859 0.41016 1.8008 1.457 1.7891 2.6211zm-50.641 40.602c-0.27734 0-0.54297-0.11328-0.73047-0.31641-0.19141-0.20312-0.28906-0.47656-0.26953-0.75391v-19.391c-0.011719-0.57031 0.43359-1.043 1-1.0703 4.0703 0 8.6797-0.14844 11.68 1.8984v21.523c-3-2.043-7.6094-1.9414-11.68-1.8906zm1.7695-15c-0.007812 0.29688 0.10547 0.58594 0.30859 0.80078 0.20312 0.21484 0.48438 0.33984 0.78125 0.34766 1.0039 0.015625 2.0078 0.085937 3 0.21094 0.91797 0.097656 1.8203 0.28125 2.7031 0.55078 0.59375 0.17578 1.2227-0.16016 1.4102-0.75 0.085937-0.28516 0.054687-0.59375-0.085937-0.85547-0.14063-0.26562-0.37891-0.46094-0.66406-0.54688-1.0117-0.30859-2.043-0.51953-3.0938-0.63672-1-0.12891-2.1094-0.19141-3.2305-0.21875l0.003906-0.003906c-0.61719 0.011719-1.1055 0.51562-1.1016 1.1289zm0 4.4219v-0.003906c-0.007812 0.29688 0.10547 0.58594 0.30859 0.80078 0.20312 0.21875 0.48438 0.34375 0.78125 0.35156 1.0039 0.015625 2.0078 0.085937 3 0.20703 0.91797 0.10156 1.8203 0.28516 2.7031 0.55078 0.59375 0.17578 1.2227-0.15625 1.4102-0.75 0.085937-0.28516 0.054687-0.59375-0.085937-0.85547-0.14063-0.26172-0.37891-0.45703-0.66406-0.54297-1.0117-0.30859-2.043-0.52344-3.0938-0.64062-1-0.12891-2.1094-0.19141-3.2305-0.21875h0.003906c-0.61719 0.011718-1.1055 0.51562-1.1016 1.1289zm0 4.3086c-0.027344 0.30859 0.074219 0.61328 0.28125 0.84375 0.20703 0.23438 0.5 0.36719 0.80859 0.375 1.0039 0.015625 2.0078 0.085938 3 0.21094 0.91797 0.097656 1.8203 0.28125 2.7031 0.55078 0.60156 0.17969 1.2344-0.16016 1.418-0.76172 0.085937-0.28516 0.058593-0.59375-0.082032-0.85547s-0.38281-0.46094-0.66797-0.54297c-1.0078-0.30859-2.043-0.52344-3.0898-0.64062-1-0.12891-2.1094-0.19141-3.2305-0.21875v-0.003907c-0.59375 0.007813-1.082 0.47656-1.1094 1.0703zm-5.7305-12.223c-0.37891 0.003906-0.73828 0.15625-1.0078 0.42578-0.26562 0.27344-0.41406 0.63672-0.41016 1.0156v19.738c-0.003906 0.38281 0.14844 0.74609 0.41406 1.0156 0.26953 0.26953 0.63672 0.41797 1.0156 0.41797 5.6211 0 12-0.19141 15.891 2.7812v-0.003906c0.50781 0.39062 1.2109 0.39062 1.7188 0 3.8906-3 10.27-2.8203 15.891-2.7812v0.003906c0.37891 0 0.74609-0.14844 1.0156-0.41797 0.26562-0.26953 0.41797-0.63281 0.41406-1.0156v-19.738c-0.003907-0.78125-0.63672-1.4141-1.418-1.4219h-1.0703v17.422c0.019532 0.78516-0.27734 1.5469-0.82422 2.1133-0.54688 0.56641-1.3008 0.88281-2.0859 0.88672-3.3203 0-9-0.30859-11.41 2.2617-0.29297 0.47266-0.8125 0.76172-1.3711 0.76172s-1.0781-0.28906-1.3711-0.76172c-2.4219-2.5703-8.0898-2.2891-11.41-2.2617-0.78516-0.003906-1.5391-0.32031-2.0859-0.88672-0.54687-0.56641-0.84375-1.3281-0.82422-2.1133v-17.441zm17.891 20.383v-21.52c3-2.0508 7.6094-1.9297 11.68-1.8984v-0.003907c0.57031 0.027344 1.0117 0.5 1 1.0703v19.41c0.019531 0.27734-0.074219 0.55078-0.26562 0.75391-0.19141 0.20312-0.45703 0.31641-0.73438 0.31641-4.0781-0.070312-8.6875-0.17187-11.68 1.8711zm9.8711-8.1328c-0.003906-0.29688-0.12891-0.57812-0.34375-0.78516-0.21094-0.20703-0.5-0.32031-0.79688-0.3125-1.1211 0-2.2109 0.089843-3.2305 0.21875-1.0469 0.11719-2.082 0.33203-3.0898 0.64062-0.28516 0.085938-0.52344 0.28125-0.66406 0.54297s-0.17188 0.57031-0.085938 0.85547c0.1875 0.59375 0.81641 0.92578 1.4102 0.75 0.88281-0.26562 1.7852-0.44922 2.6992-0.54688 0.99609-0.125 2-0.19531 3-0.21094 0.30078-0.007813 0.58594-0.12891 0.79297-0.34766 0.20312-0.21484 0.31641-0.50391 0.30859-0.80469zm0-4.3086c-0.003906-0.29688-0.12891-0.57812-0.34375-0.78516-0.21094-0.20703-0.5-0.32031-0.79688-0.31641-1.1211 0-2.2109 0.089843-3.2305 0.21875v0.003906c-1.0469 0.11719-2.082 0.33203-3.0898 0.64062-0.28516 0.082031-0.52344 0.28125-0.66406 0.54297-0.14062 0.26172-0.17188 0.57031-0.085938 0.85547 0.1875 0.59375 0.81641 0.92578 1.4102 0.75 0.88281-0.26953 1.7852-0.45312 2.6992-0.55078 0.99609-0.125 2-0.19531 3-0.21094 0.30078-0.003907 0.58594-0.12891 0.79297-0.34375 0.20312-0.21484 0.31641-0.50781 0.30859-0.80469zm0-4.4219c-0.019531-0.59766-0.51172-1.0742-1.1094-1.0781-1.1211 0-2.2109 0.089844-3.2305 0.21875-1.0469 0.11719-2.082 0.33203-3.0898 0.64062-0.28516 0.085937-0.52734 0.28125-0.66797 0.54297-0.14062 0.26562-0.16797 0.57422-0.082032 0.85938 0.1875 0.58984 0.8125 0.92578 1.4102 0.75 0.87891-0.26953 1.7852-0.45312 2.6992-0.55078 0.99609-0.125 1.9961-0.19531 3-0.21094 0.29687-0.011719 0.57812-0.14453 0.77734-0.36328 0.20312-0.21875 0.30469-0.50781 0.29297-0.80859zm32.191 40.152h-86.383c-1.0352 0-1.8789 0.83984-1.8789 1.8789v3.2109c0 0.5 0.19922 0.97656 0.55078 1.3281 0.35156 0.35156 0.83203 0.55078 1.3281 0.55078h86.383c1.0352 0 1.8789-0.83984 1.8789-1.8789v-3.2109c0-1.0391-0.84375-1.8789-1.8789-1.8789zm-84.5-7.3516v5.1211h82.617v-5.1211c0-1.0352-0.83594-1.875-1.8672-1.8789h-78.883c-1.0312 0.003906-1.8672 0.84375-1.8672 1.8789zm1.5898-48.641h79.438c1.0352 0 1.875-0.83203 1.8828-1.8672v-3.793c-0.007812-1.0352-0.84375-1.8711-1.8828-1.8789h-79.438c-1.0391 0.007812-1.875 0.84375-1.8828 1.8789v3.793c0.007812 1.0352 0.84766 1.8672 1.8828 1.8672zm71.867 38.762v-30.75h-7.1484v30.75zm-57.148 0v-30.75h-7.1484v30.75zm-10.309 5.75h13.469v-1.6211c-0.003906-1.0352-0.84375-1.875-1.8789-1.8789h-9.7109c-1.0352 0.003906-1.875 0.84375-1.8789 1.8789zm13.469-40.641v-1.6094h-13.469v1.6094c-0.003906 0.5 0.19141 0.98047 0.54688 1.3359 0.35156 0.35547 0.83203 0.55469 1.332 0.55469h9.7109c0.5 0 0.98047-0.19922 1.332-0.55469 0.35156-0.35547 0.55078-0.83594 0.54688-1.3359zm43.68 40.641h13.469v-1.6211c-0.003906-1.0352-0.84375-1.875-1.8789-1.8789h-9.7109c-1.0352 0.003906-1.875 0.84375-1.8789 1.8789zm13.469-40.641v-1.6094h-13.469v1.6094c-0.003906 0.5 0.19531 0.98047 0.54688 1.3359 0.35156 0.35547 0.83203 0.55469 1.332 0.55469h9.7109c0.5 0 0.98047-0.19922 1.332-0.55469 0.35547-0.35547 0.55078-0.83594 0.54688-1.3359z" fill-rule="evenodd"/>
</svg>