<svg xmlns="http://www.w3.org/2000/svg" viewBox="0 0 100 100" x="0px" y="0px"><path d="M96.3091944,59.8030556 C96.3091944,69.5141667 93.5358611,78.8802778 88.27975,86.9716667 C88.6775278,87.5669444 88.9105833,88.2813889 88.9105833,89.0497222 C88.9105833,91.1175 87.2283611,92.7997222 85.1605833,92.7997222 C83.0928056,92.7997222 81.4105833,91.1175 81.4105833,89.0497222 C81.4105833,88.4716667 81.5458611,87.9261111 81.7803056,87.4366667 L47.8933611,53.55 C47.3991944,53.7902778 46.8464167,53.9291667 46.2608611,53.9291667 C45.6753056,53.9291667 45.1225278,53.7902778 44.6283611,53.55 L10.7414167,87.4369444 C10.9758611,87.9263889 11.1111389,88.4719444 11.1111389,89.0497222 C11.1111389,91.1175 9.42891667,92.7997222 7.36113889,92.7997222 C5.29336111,92.7997222 3.61113889,91.1175 3.61113889,89.0497222 C3.61113889,86.9819444 5.29336111,85.2997222 7.36113889,85.2997222 C7.93891667,85.2997222 8.48447222,85.4347222 8.97363889,85.6691667 L42.8711389,51.7722222 C42.6425278,51.2880556 42.5108611,50.7494444 42.5108611,50.1791667 C42.5108611,49.5936111 42.64975,49.0411111 42.8900278,48.5466667 L8.97363889,14.6305556 C8.48447222,14.865 7.93891667,15 7.36113889,15 C5.29336111,15 3.61113889,13.3177778 3.61113889,11.25 C3.61113889,9.1825 5.29336111,7.5 7.36113889,7.5 C9.42891667,7.5 11.1111389,9.1825 11.1111389,11.25 C11.1111389,11.8277778 10.9758611,12.3733333 10.7414167,12.8627778 L44.6680833,46.7894444 C45.15225,46.5608333 45.6908611,46.4291667 46.2608611,46.4291667 C46.8308611,46.4291667 47.3694722,46.5608333 47.8536389,46.7891667 L81.7800278,12.8627778 C81.5455833,12.3733333 81.4105833,11.8277778 81.4105833,11.25 C81.4105833,9.1825 83.0928056,7.5 85.1605833,7.5 C87.2283611,7.5 88.9105833,9.1825 88.9105833,11.25 C88.9105833,13.3177778 87.2283611,15 85.1605833,15 C84.5828056,15 84.03725,14.865 83.5478056,14.6305556 L49.6316944,48.5466667 C49.8719722,49.0411111 50.0108611,49.5936111 50.0108611,50.1791667 C50.0108611,50.7494444 49.8791944,51.2880556 49.6505833,51.7722222 L83.5478056,85.6691667 C84.03725,85.4347222 84.5828056,85.2997222 85.1605833,85.2997222 C85.5483611,85.2997222 85.92225,85.3588889 86.2744722,85.4683333 C91.2069722,77.8155556 93.8091944,68.9719444 93.8091944,59.8030556 C93.8091944,49.4036111 90.5083611,39.5311111 84.2633611,31.2527778 L86.2591944,29.7472222 C92.8339167,38.4627778 96.3091944,48.8558333 96.3091944,59.8030556 Z M7.63277778,61.5055 C14.0441667,61.5055 19.26,56.2896667 19.26,49.8782778 C19.26,43.4668889 14.0441667,38.2507778 7.63277778,38.2507778 L6.38277778,38.2507778 L6.38277778,35.7507778 L7.63277778,35.7507778 C15.4225,35.7507778 21.76,42.0882778 21.76,49.8782778 C21.76,57.668 15.4225,64.0055 7.63277778,64.0055 L6.38277778,64.0055 L6.38277778,61.5055 L7.63277778,61.5055 Z M46.2608611,62.0447222 C54.0505833,62.0447222 60.3880833,68.3825 60.3880833,76.1722222 C60.3880833,83.9622222 54.0505833,90.2997222 46.2608611,90.2997222 C38.4711389,90.2997222 32.1336389,83.9622222 32.1336389,76.1722222 C32.1336389,68.3825 38.4711389,62.0447222 46.2608611,62.0447222 Z M46.2608611,87.7997222 C52.67225,87.7997222 57.8880833,82.5836111 57.8880833,76.1722222 C57.8880833,69.7608333 52.67225,64.5447222 46.2608611,64.5447222 C39.8494722,64.5447222 34.6336389,69.7608333 34.6336389,76.1722222 C34.6336389,82.5836111 39.8494722,87.7997222 46.2608611,87.7997222 Z M45.0108611,38.1040833 L45.0108611,25.7485278 L32.1336389,25.7485278 L32.1336389,23.2485278 L43.2430833,23.2485278 L32.2386389,12.2440833 L34.0064167,10.4763056 L45.0108611,21.48075 L45.0108611,9.84936111 L47.5108611,9.84936111 L47.5108611,21.48075 L58.38475,10.6065833 L60.1525278,12.3746389 L49.2783611,23.2485278 L60.3878056,23.2485278 L60.3878056,25.7485278 L47.5108611,25.7485278 L47.5108611,38.1040833 L45.0108611,38.1040833 Z M85.1605833,90.2997222 C85.84975,90.2997222 86.4105833,89.7388889 86.4105833,89.0497222 C86.4105833,88.3605556 85.84975,87.7997222 85.1605833,87.7997222 C84.4714167,87.7997222 83.9105833,88.3605556 83.9105833,89.0497222 C83.9105833,89.7388889 84.4714167,90.2997222 85.1605833,90.2997222 Z M46.2608611,51.4291667 C46.9500278,51.4291667 47.5108611,50.8686111 47.5108611,50.1791667 C47.5108611,49.49 46.9500278,48.9291667 46.2608611,48.9291667 C45.5714167,48.9291667 45.0108611,49.49 45.0108611,50.1791667 C45.0108611,50.8686111 45.5714167,51.4291667 46.2608611,51.4291667 Z M7.36113889,90.2997222 C8.05030556,90.2997222 8.61113889,89.7388889 8.61113889,89.0497222 C8.61113889,88.3605556 8.05030556,87.7997222 7.36113889,87.7997222 C6.67169444,87.7997222 6.11113889,88.3605556 6.11113889,89.0497222 C6.11113889,89.7388889 6.67169444,90.2997222 7.36113889,90.2997222 Z M6.11113889,11.25 C6.11113889,11.9394444 6.67169444,12.5 7.36113889,12.5 C8.05030556,12.5 8.61113889,11.9394444 8.61113889,11.25 C8.61113889,10.5608333 8.05030556,10 7.36113889,10 C6.67169444,10 6.11113889,10.5608333 6.11113889,11.25 Z M85.1605833,10 C84.4714167,10 83.9105833,10.5608333 83.9105833,11.25 C83.9105833,11.9394444 84.4714167,12.5 85.1605833,12.5 C85.84975,12.5 86.4105833,11.9394444 86.4105833,11.25 C86.4105833,10.5608333 85.84975,10 85.1605833,10 Z"/></svg>
