<?xml version="1.0" standalone="no"?>
<!DOCTYPE svg PUBLIC "-//W3C//DTD SVG 20010904//EN"
 "http://www.w3.org/TR/2001/REC-SVG-20010904/DTD/svg10.dtd">
<svg version="1.0" xmlns="http://www.w3.org/2000/svg"
 width="1230.000000pt" height="1280.000000pt" viewBox="0 0 1230.000000 1280.000000"
 preserveAspectRatio="xMidYMid meet">
<g transform="translate(0.000000,1280.000000) scale(0.100000,-0.100000)"
fill="#000000" stroke="none">
<path d="M8316 12768 c-29 -42 -20 -90 39 -204 64 -123 85 -197 85 -309 0
-136 -40 -239 -129 -337 -64 -71 -158 -135 -360 -248 -212 -118 -282 -164
-358 -234 -143 -132 -269 -392 -309 -635 -23 -140 -14 -262 33 -446 33 -131
38 -164 38 -265 0 -105 -3 -120 -29 -177 -37 -81 -60 -101 -201 -177 -66 -35
-134 -72 -152 -82 -21 -12 -35 -15 -41 -9 -13 14 -113 322 -166 510 -81 289
-136 520 -286 1187 -39 175 -97 424 -129 555 -33 131 -64 265 -71 298 -26 127
-58 210 -102 260 -39 45 -89 75 -122 75 -24 0 -109 -221 -166 -435 -76 -286
-107 -483 -160 -1020 -35 -343 -52 -490 -81 -660 -34 -208 -94 -418 -120 -422
-8 -2 -24 19 -39 50 -32 67 -154 191 -245 250 -38 24 -174 97 -300 161 -328
165 -440 255 -510 408 -46 101 -55 172 -38 295 26 196 -1 343 -119 633 -39 96
-82 203 -96 237 -24 58 -30 66 -96 105 -39 24 -100 72 -136 109 -73 73 -123
96 -321 144 -284 69 -507 55 -553 -34 -45 -86 20 -157 161 -176 65 -9 125 -47
199 -128 210 -232 271 -571 146 -812 -24 -47 -26 -58 -24 -175 4 -212 22 -490
38 -595 17 -108 73 -304 104 -365 30 -58 126 -148 300 -279 260 -198 342 -286
382 -414 23 -75 23 -129 -2 -209 -36 -116 -25 -115 -205 -23 -87 43 -237 127
-334 185 -198 120 -200 121 -551 350 -307 200 -492 314 -671 411 -100 54 -158
94 -227 156 -156 138 -323 253 -441 305 -91 40 -185 68 -194 59 -16 -16 -2
-181 21 -245 28 -78 91 -176 208 -326 191 -246 456 -634 533 -781 31 -59 56
-92 83 -112 22 -15 56 -55 76 -89 51 -85 109 -147 146 -156 30 -8 31 -11 37
-73 6 -70 9 -76 110 -231 62 -95 98 -183 81 -200 -6 -6 -25 -4 -56 6 -135 46
-308 39 -642 -23 -279 -53 -379 -65 -500 -58 -120 7 -243 43 -298 89 -20 16
-86 89 -147 161 -328 391 -505 511 -749 511 -101 -1 -115 -5 -340 -97 -47 -20
-93 -38 -103 -41 -10 -3 -25 -19 -35 -36 -9 -17 -43 -68 -75 -113 -62 -86
-107 -170 -107 -196 0 -9 7 -25 16 -36 22 -30 86 -25 161 13 151 77 333 41
522 -101 l75 -56 86 -190 c135 -294 193 -387 264 -422 63 -32 84 -56 125 -145
44 -92 69 -116 182 -168 181 -83 352 -122 591 -136 95 -5 254 -14 353 -20 200
-12 289 -27 377 -67 98 -44 166 -143 156 -227 -2 -24 -12 -32 -63 -52 -90 -37
-239 -78 -518 -145 -309 -73 -372 -92 -612 -184 -363 -138 -481 -170 -591
-160 -90 8 -170 -12 -417 -104 -261 -98 -308 -111 -434 -121 -121 -9 -156 -22
-196 -70 -22 -26 -25 -34 -15 -60 13 -38 58 -76 106 -90 20 -6 98 -15 172 -20
175 -11 448 -61 1025 -186 368 -80 696 -143 780 -149 50 -4 106 -14 125 -22
37 -15 80 -50 80 -66 0 -10 -52 -58 -175 -161 -122 -103 -272 -254 -321 -323
-73 -102 -154 -299 -154 -375 0 -26 -80 -107 -129 -132 -94 -48 -167 -58 -466
-66 -251 -6 -287 -9 -344 -29 -142 -49 -292 -144 -407 -255 -73 -72 -121 -162
-155 -291 -29 -111 -37 -323 -16 -423 19 -88 60 -182 94 -214 l25 -23 24 30
c14 17 52 78 86 138 76 133 154 213 196 202 80 -20 102 -18 147 14 79 57 109
65 235 64 83 -1 162 -10 285 -33 213 -40 339 -43 504 -11 296 57 386 122 589
422 198 293 319 379 529 379 79 0 198 -22 216 -39 4 -4 -37 -100 -91 -212 -55
-112 -141 -292 -193 -399 -157 -330 -218 -435 -337 -585 -86 -109 -127 -199
-220 -482 -44 -132 -97 -273 -117 -312 -22 -42 -79 -119 -136 -184 -121 -137
-149 -188 -149 -271 0 -99 -1 -99 162 -19 229 114 391 222 763 513 357 279
542 410 700 496 48 26 98 67 160 129 88 89 163 138 225 147 29 4 29 3 9 -115
-22 -135 4 -245 121 -497 82 -178 110 -260 117 -345 11 -136 -32 -244 -168
-430 -45 -60 -98 -144 -118 -185 -31 -62 -41 -75 -66 -80 -63 -14 -95 -40
-150 -125 -172 -267 -238 -457 -239 -685 0 -105 4 -135 22 -184 12 -33 22 -79
22 -104 0 -27 8 -57 20 -77 11 -18 44 -97 73 -176 30 -79 64 -163 76 -187 45
-89 134 -161 183 -149 40 10 92 51 102 80 6 17 5 78 -3 174 -17 197 -4 279 64
413 61 120 169 232 445 462 352 292 514 497 585 742 32 113 51 249 75 553 27
336 50 463 106 590 17 41 29 54 51 59 15 4 53 22 84 41 64 39 120 52 135 31 6
-7 26 -83 44 -168 17 -85 70 -315 117 -510 88 -370 184 -785 209 -905 8 -38
26 -164 39 -279 29 -240 41 -293 93 -408 l37 -83 -3 -252 c-4 -287 3 -345 50
-399 26 -30 36 -34 77 -34 80 0 106 43 141 235 12 66 46 203 75 305 62 214 75
280 75 367 0 49 6 75 29 120 39 76 58 187 71 413 13 231 25 285 94 437 59 128
64 153 85 367 12 117 50 209 88 214 36 5 121 -84 184 -190 30 -51 70 -109 90
-129 61 -61 165 -115 338 -174 90 -31 186 -67 214 -81 112 -57 193 -176 222
-328 19 -100 19 -184 -1 -310 -22 -133 -14 -312 16 -411 81 -259 306 -507 623
-685 l58 -33 192 6 c216 5 277 18 326 68 26 26 31 38 31 80 0 68 -29 95 -175
168 -66 32 -129 69 -141 82 -38 43 -84 129 -112 207 -26 75 -27 82 -27 317 0
132 4 319 9 415 13 268 -18 470 -112 708 -84 215 -158 306 -393 482 -85 65
-174 139 -197 165 -120 136 -137 305 -50 488 23 48 47 92 53 97 25 21 208 -61
330 -148 39 -27 104 -82 146 -121 62 -57 146 -112 440 -287 702 -418 856 -517
1138 -729 238 -180 336 -226 443 -208 l40 6 -6 45 c-13 97 -65 182 -256 417
-63 78 -99 137 -165 269 -99 196 -177 318 -398 621 -89 121 -195 272 -235 335
-82 128 -197 353 -188 368 3 6 35 -5 74 -25 91 -47 191 -62 304 -45 74 11 137
31 433 136 271 96 615 58 771 -86 26 -23 93 -114 150 -200 121 -184 200 -273
282 -316 68 -36 104 -45 270 -66 68 -9 142 -22 166 -28 39 -10 49 -9 92 12 27
12 102 42 167 66 269 100 334 149 383 295 40 119 59 109 -203 109 -249 0 -332
9 -408 44 -86 39 -110 67 -151 174 -184 481 -349 705 -609 828 -174 82 -349
107 -660 93 -346 -14 -516 30 -611 160 -33 46 -214 399 -214 419 0 18 734 191
1500 353 669 142 1100 244 1112 261 10 17 0 76 -21 113 -9 17 -37 41 -61 54
-39 22 -60 25 -224 32 -100 4 -197 13 -216 20 -19 6 -93 33 -165 60 -149 54
-231 72 -620 129 -448 66 -666 116 -835 192 -98 44 -170 90 -170 109 0 22 136
115 305 209 72 40 140 84 152 99 40 48 110 175 184 331 40 85 91 186 113 224
55 92 158 197 232 234 121 61 144 65 444 68 359 3 390 12 602 163 47 34 117
78 154 99 l68 37 37 92 c94 234 129 364 128 483 -1 107 -31 188 -82 219 -18
12 -32 0 -171 -141 -164 -168 -202 -193 -333 -224 -86 -20 -258 -14 -463 17
-92 13 -193 21 -275 22 -211 0 -325 -32 -703 -193 l-243 -104 -51 -81 c-149
-236 -295 -388 -437 -458 -84 -41 -89 -42 -186 -42 -93 0 -105 2 -172 34 -111
52 -112 54 -73 153 71 180 158 335 275 488 40 52 182 282 315 510 361 616 526
867 707 1072 143 163 172 221 164 335 -1 28 -58 47 -118 39 -58 -8 -108 -38
-223 -135 -58 -49 -175 -128 -298 -203 -246 -148 -342 -220 -622 -463 -267
-232 -401 -330 -555 -406 -119 -58 -247 -100 -262 -86 -4 4 -1 22 6 40 47 114
63 194 68 339 8 223 -24 420 -112 677 -53 158 -46 259 29 416 47 99 113 186
282 375 199 223 272 337 308 479 49 189 16 456 -79 658 -89 191 -230 336 -390
402 -108 44 -111 45 -129 19z m-3039 -5702 c-5 -15 -49 -14 -54 1 -4 12 24 22
45 15 7 -2 11 -10 9 -16z"/>
</g>
</svg>
